%TF.GenerationSoftware,KiCad,Pcbnew,8.0.4*%
%TF.CreationDate,2024-11-18T10:43:42+00:00*%
%TF.ProjectId,AtomV5Board,41746f6d-5635-4426-9f61-72642e6b6963,rev?*%
%TF.SameCoordinates,Original*%
%TF.FileFunction,Profile,NP*%
%FSLAX46Y46*%
G04 Gerber Fmt 4.6, Leading zero omitted, Abs format (unit mm)*
G04 Created by KiCad (PCBNEW 8.0.4) date 2024-11-18 10:43:42*
%MOMM*%
%LPD*%
G01*
G04 APERTURE LIST*
%TA.AperFunction,Profile*%
%ADD10C,0.050000*%
%TD*%
G04 APERTURE END LIST*
D10*
X48840000Y-161912500D02*
G75*
G02*
X45140000Y-161912500I-1850000J0D01*
G01*
X45140000Y-161912500D02*
G75*
G02*
X48840000Y-161912500I1850000J0D01*
G01*
X44590000Y-23920000D02*
X44590000Y-28920000D01*
X205590000Y-28920000D02*
X209590000Y-28920000D01*
X22590000Y-123420000D02*
X22590000Y-23920000D01*
X48590000Y-23920000D02*
X48590000Y-28920000D01*
X392590000Y-238920000D02*
X392590000Y-127420000D01*
X63840000Y-230520000D02*
G75*
G02*
X61340000Y-230520000I-1250000J0D01*
G01*
X61340000Y-230520000D02*
G75*
G02*
X63840000Y-230520000I1250000J0D01*
G01*
X27590000Y-123420000D02*
X22590000Y-123420000D01*
X27590000Y-127420000D02*
X27590000Y-123420000D01*
X387590000Y-123420000D02*
X392590000Y-123420000D01*
X209590000Y-28920000D02*
X209590000Y-23920000D01*
X205590000Y-23920000D02*
X205590000Y-28920000D01*
X209590000Y-23920000D02*
X297815000Y-23920000D01*
X48590000Y-23920000D02*
X205590000Y-23920000D01*
X22590000Y-23920000D02*
X44590000Y-23920000D01*
X48713000Y-45520000D02*
G75*
G02*
X45013000Y-45520000I-1850000J0D01*
G01*
X45013000Y-45520000D02*
G75*
G02*
X48713000Y-45520000I1850000J0D01*
G01*
X41490000Y-125730000D02*
G75*
G02*
X35490000Y-125730000I-3000000J0D01*
G01*
X35490000Y-125730000D02*
G75*
G02*
X41490000Y-125730000I3000000J0D01*
G01*
X392590000Y-127420000D02*
X387590000Y-127420000D01*
X392590000Y-23920000D02*
X370590000Y-23920000D01*
X370590000Y-23920000D02*
X370590000Y-28920000D01*
X376840000Y-166920000D02*
G75*
G02*
X374340000Y-166920000I-1250000J0D01*
G01*
X374340000Y-166920000D02*
G75*
G02*
X376840000Y-166920000I1250000J0D01*
G01*
X387590000Y-127420000D02*
X387590000Y-123420000D01*
X22590000Y-238920000D02*
X22590000Y-127420000D01*
X22590000Y-127420000D02*
X27590000Y-127420000D01*
X48590000Y-211912500D02*
G75*
G02*
X44890000Y-211912500I-1850000J0D01*
G01*
X44890000Y-211912500D02*
G75*
G02*
X48590000Y-211912500I1850000J0D01*
G01*
X22590000Y-238920000D02*
X392590000Y-238920000D01*
X372200000Y-125570000D02*
G75*
G02*
X366200000Y-125570000I-3000000J0D01*
G01*
X366200000Y-125570000D02*
G75*
G02*
X372200000Y-125570000I3000000J0D01*
G01*
X44590000Y-28920000D02*
X48590000Y-28920000D01*
X392590000Y-123420000D02*
X392590000Y-23920000D01*
X370590000Y-28920000D02*
X366590000Y-28920000D01*
X297815000Y-23920000D02*
X366590000Y-23920000D01*
X371340000Y-45520000D02*
G75*
G02*
X367640000Y-45520000I-1850000J0D01*
G01*
X367640000Y-45520000D02*
G75*
G02*
X371340000Y-45520000I1850000J0D01*
G01*
X381290000Y-211912500D02*
G75*
G02*
X377590000Y-211912500I-1850000J0D01*
G01*
X377590000Y-211912500D02*
G75*
G02*
X381290000Y-211912500I1850000J0D01*
G01*
X376840000Y-230520000D02*
G75*
G02*
X374340000Y-230520000I-1250000J0D01*
G01*
X374340000Y-230520000D02*
G75*
G02*
X376840000Y-230520000I1250000J0D01*
G01*
X366590000Y-23920000D02*
X366590000Y-28920000D01*
M02*
