%TF.GenerationSoftware,KiCad,Pcbnew,8.0.4*%
%TF.CreationDate,2024-11-18T10:43:46+00:00*%
%TF.ProjectId,AtomV5Board,41746f6d-5635-4426-9f61-72642e6b6963,rev?*%
%TF.SameCoordinates,Original*%
%TF.FileFunction,Drillmap*%
%TF.FilePolarity,Positive*%
%FSLAX45Y45*%
G04 Gerber Fmt 4.5, Leading zero omitted, Abs format (unit mm)*
G04 Created by KiCad (PCBNEW 8.0.4) date 2024-11-18 10:43:46*
%MOMM*%
%LPD*%
G01*
G04 APERTURE LIST*
%ADD10C,0.050000*%
%ADD11C,0.200000*%
%ADD12C,0.350000*%
G04 APERTURE END LIST*
D10*
X4884000Y-16191250D02*
G75*
G02*
X4514000Y-16191250I-185000J0D01*
G01*
X4514000Y-16191250D02*
G75*
G02*
X4884000Y-16191250I185000J0D01*
G01*
X4459000Y-2392000D02*
X4459000Y-2892000D01*
X20559000Y-2892000D02*
X20959000Y-2892000D01*
X2259000Y-12342000D02*
X2259000Y-2392000D01*
X4859000Y-2392000D02*
X4859000Y-2892000D01*
X39259000Y-23892000D02*
X39259000Y-12742000D01*
X6384000Y-23052000D02*
G75*
G02*
X6134000Y-23052000I-125000J0D01*
G01*
X6134000Y-23052000D02*
G75*
G02*
X6384000Y-23052000I125000J0D01*
G01*
X2759000Y-12342000D02*
X2259000Y-12342000D01*
X2759000Y-12742000D02*
X2759000Y-12342000D01*
X38759000Y-12342000D02*
X39259000Y-12342000D01*
X20959000Y-2892000D02*
X20959000Y-2392000D01*
X20559000Y-2392000D02*
X20559000Y-2892000D01*
X20959000Y-2392000D02*
X29781500Y-2392000D01*
X4859000Y-2392000D02*
X20559000Y-2392000D01*
X2259000Y-2392000D02*
X4459000Y-2392000D01*
X4871300Y-4552000D02*
G75*
G02*
X4501300Y-4552000I-185000J0D01*
G01*
X4501300Y-4552000D02*
G75*
G02*
X4871300Y-4552000I185000J0D01*
G01*
X4149000Y-12573000D02*
G75*
G02*
X3549000Y-12573000I-300000J0D01*
G01*
X3549000Y-12573000D02*
G75*
G02*
X4149000Y-12573000I300000J0D01*
G01*
X39259000Y-12742000D02*
X38759000Y-12742000D01*
X39259000Y-2392000D02*
X37059000Y-2392000D01*
X37059000Y-2392000D02*
X37059000Y-2892000D01*
X37684000Y-16692000D02*
G75*
G02*
X37434000Y-16692000I-125000J0D01*
G01*
X37434000Y-16692000D02*
G75*
G02*
X37684000Y-16692000I125000J0D01*
G01*
X38759000Y-12742000D02*
X38759000Y-12342000D01*
X2259000Y-23892000D02*
X2259000Y-12742000D01*
X2259000Y-12742000D02*
X2759000Y-12742000D01*
X4859000Y-21191250D02*
G75*
G02*
X4489000Y-21191250I-185000J0D01*
G01*
X4489000Y-21191250D02*
G75*
G02*
X4859000Y-21191250I185000J0D01*
G01*
X2259000Y-23892000D02*
X39259000Y-23892000D01*
X37220000Y-12557000D02*
G75*
G02*
X36620000Y-12557000I-300000J0D01*
G01*
X36620000Y-12557000D02*
G75*
G02*
X37220000Y-12557000I300000J0D01*
G01*
X4459000Y-2892000D02*
X4859000Y-2892000D01*
X39259000Y-12342000D02*
X39259000Y-2392000D01*
X37059000Y-2892000D02*
X36659000Y-2892000D01*
X29781500Y-2392000D02*
X36659000Y-2392000D01*
X37134000Y-4552000D02*
G75*
G02*
X36764000Y-4552000I-185000J0D01*
G01*
X36764000Y-4552000D02*
G75*
G02*
X37134000Y-4552000I185000J0D01*
G01*
X38129000Y-21191250D02*
G75*
G02*
X37759000Y-21191250I-185000J0D01*
G01*
X37759000Y-21191250D02*
G75*
G02*
X38129000Y-21191250I185000J0D01*
G01*
X37684000Y-23052000D02*
G75*
G02*
X37434000Y-23052000I-125000J0D01*
G01*
X37434000Y-23052000D02*
G75*
G02*
X37684000Y-23052000I125000J0D01*
G01*
X36659000Y-2392000D02*
X36659000Y-2892000D01*
D11*
D12*
X23193000Y-2619000D02*
X23543000Y-2969000D01*
X23543000Y-2619000D02*
X23193000Y-2969000D01*
X24971000Y-2619000D02*
X25321000Y-2969000D01*
X25321000Y-2619000D02*
X24971000Y-2969000D01*
D11*
X2517277Y-24205984D02*
X2517277Y-24005984D01*
X2517277Y-24005984D02*
X2564896Y-24005984D01*
X2564896Y-24005984D02*
X2593467Y-24015508D01*
X2593467Y-24015508D02*
X2612515Y-24034555D01*
X2612515Y-24034555D02*
X2622039Y-24053603D01*
X2622039Y-24053603D02*
X2631563Y-24091698D01*
X2631563Y-24091698D02*
X2631563Y-24120269D01*
X2631563Y-24120269D02*
X2622039Y-24158365D01*
X2622039Y-24158365D02*
X2612515Y-24177412D01*
X2612515Y-24177412D02*
X2593467Y-24196460D01*
X2593467Y-24196460D02*
X2564896Y-24205984D01*
X2564896Y-24205984D02*
X2517277Y-24205984D01*
X2717277Y-24205984D02*
X2717277Y-24072650D01*
X2717277Y-24110746D02*
X2726801Y-24091698D01*
X2726801Y-24091698D02*
X2736324Y-24082174D01*
X2736324Y-24082174D02*
X2755372Y-24072650D01*
X2755372Y-24072650D02*
X2774420Y-24072650D01*
X2841086Y-24205984D02*
X2841086Y-24072650D01*
X2841086Y-24005984D02*
X2831562Y-24015508D01*
X2831562Y-24015508D02*
X2841086Y-24025031D01*
X2841086Y-24025031D02*
X2850610Y-24015508D01*
X2850610Y-24015508D02*
X2841086Y-24005984D01*
X2841086Y-24005984D02*
X2841086Y-24025031D01*
X2964896Y-24205984D02*
X2945848Y-24196460D01*
X2945848Y-24196460D02*
X2936324Y-24177412D01*
X2936324Y-24177412D02*
X2936324Y-24005984D01*
X3069658Y-24205984D02*
X3050610Y-24196460D01*
X3050610Y-24196460D02*
X3041086Y-24177412D01*
X3041086Y-24177412D02*
X3041086Y-24005984D01*
X3298229Y-24205984D02*
X3298229Y-24005984D01*
X3298229Y-24005984D02*
X3364896Y-24148841D01*
X3364896Y-24148841D02*
X3431562Y-24005984D01*
X3431562Y-24005984D02*
X3431562Y-24205984D01*
X3612515Y-24205984D02*
X3612515Y-24101222D01*
X3612515Y-24101222D02*
X3602991Y-24082174D01*
X3602991Y-24082174D02*
X3583943Y-24072650D01*
X3583943Y-24072650D02*
X3545848Y-24072650D01*
X3545848Y-24072650D02*
X3526801Y-24082174D01*
X3612515Y-24196460D02*
X3593467Y-24205984D01*
X3593467Y-24205984D02*
X3545848Y-24205984D01*
X3545848Y-24205984D02*
X3526801Y-24196460D01*
X3526801Y-24196460D02*
X3517277Y-24177412D01*
X3517277Y-24177412D02*
X3517277Y-24158365D01*
X3517277Y-24158365D02*
X3526801Y-24139317D01*
X3526801Y-24139317D02*
X3545848Y-24129793D01*
X3545848Y-24129793D02*
X3593467Y-24129793D01*
X3593467Y-24129793D02*
X3612515Y-24120269D01*
X3707753Y-24072650D02*
X3707753Y-24272650D01*
X3707753Y-24082174D02*
X3726801Y-24072650D01*
X3726801Y-24072650D02*
X3764896Y-24072650D01*
X3764896Y-24072650D02*
X3783943Y-24082174D01*
X3783943Y-24082174D02*
X3793467Y-24091698D01*
X3793467Y-24091698D02*
X3802991Y-24110746D01*
X3802991Y-24110746D02*
X3802991Y-24167888D01*
X3802991Y-24167888D02*
X3793467Y-24186936D01*
X3793467Y-24186936D02*
X3783943Y-24196460D01*
X3783943Y-24196460D02*
X3764896Y-24205984D01*
X3764896Y-24205984D02*
X3726801Y-24205984D01*
X3726801Y-24205984D02*
X3707753Y-24196460D01*
X3888705Y-24186936D02*
X3898229Y-24196460D01*
X3898229Y-24196460D02*
X3888705Y-24205984D01*
X3888705Y-24205984D02*
X3879182Y-24196460D01*
X3879182Y-24196460D02*
X3888705Y-24186936D01*
X3888705Y-24186936D02*
X3888705Y-24205984D01*
X3888705Y-24082174D02*
X3898229Y-24091698D01*
X3898229Y-24091698D02*
X3888705Y-24101222D01*
X3888705Y-24101222D02*
X3879182Y-24091698D01*
X3879182Y-24091698D02*
X3888705Y-24082174D01*
X3888705Y-24082174D02*
X3888705Y-24101222D01*
X2056500Y-24434500D02*
X2256500Y-24634500D01*
X2256500Y-24434500D02*
X2056500Y-24634500D01*
X2498229Y-24425984D02*
X2622039Y-24425984D01*
X2622039Y-24425984D02*
X2555372Y-24502174D01*
X2555372Y-24502174D02*
X2583944Y-24502174D01*
X2583944Y-24502174D02*
X2602991Y-24511698D01*
X2602991Y-24511698D02*
X2612515Y-24521222D01*
X2612515Y-24521222D02*
X2622039Y-24540269D01*
X2622039Y-24540269D02*
X2622039Y-24587888D01*
X2622039Y-24587888D02*
X2612515Y-24606936D01*
X2612515Y-24606936D02*
X2602991Y-24616460D01*
X2602991Y-24616460D02*
X2583944Y-24625984D01*
X2583944Y-24625984D02*
X2526801Y-24625984D01*
X2526801Y-24625984D02*
X2507753Y-24616460D01*
X2507753Y-24616460D02*
X2498229Y-24606936D01*
X2707753Y-24606936D02*
X2717277Y-24616460D01*
X2717277Y-24616460D02*
X2707753Y-24625984D01*
X2707753Y-24625984D02*
X2698229Y-24616460D01*
X2698229Y-24616460D02*
X2707753Y-24606936D01*
X2707753Y-24606936D02*
X2707753Y-24625984D01*
X2898229Y-24425984D02*
X2802991Y-24425984D01*
X2802991Y-24425984D02*
X2793467Y-24521222D01*
X2793467Y-24521222D02*
X2802991Y-24511698D01*
X2802991Y-24511698D02*
X2822039Y-24502174D01*
X2822039Y-24502174D02*
X2869658Y-24502174D01*
X2869658Y-24502174D02*
X2888705Y-24511698D01*
X2888705Y-24511698D02*
X2898229Y-24521222D01*
X2898229Y-24521222D02*
X2907753Y-24540269D01*
X2907753Y-24540269D02*
X2907753Y-24587888D01*
X2907753Y-24587888D02*
X2898229Y-24606936D01*
X2898229Y-24606936D02*
X2888705Y-24616460D01*
X2888705Y-24616460D02*
X2869658Y-24625984D01*
X2869658Y-24625984D02*
X2822039Y-24625984D01*
X2822039Y-24625984D02*
X2802991Y-24616460D01*
X2802991Y-24616460D02*
X2793467Y-24606936D01*
X3031562Y-24425984D02*
X3050610Y-24425984D01*
X3050610Y-24425984D02*
X3069658Y-24435508D01*
X3069658Y-24435508D02*
X3079182Y-24445031D01*
X3079182Y-24445031D02*
X3088705Y-24464079D01*
X3088705Y-24464079D02*
X3098229Y-24502174D01*
X3098229Y-24502174D02*
X3098229Y-24549793D01*
X3098229Y-24549793D02*
X3088705Y-24587888D01*
X3088705Y-24587888D02*
X3079182Y-24606936D01*
X3079182Y-24606936D02*
X3069658Y-24616460D01*
X3069658Y-24616460D02*
X3050610Y-24625984D01*
X3050610Y-24625984D02*
X3031562Y-24625984D01*
X3031562Y-24625984D02*
X3012515Y-24616460D01*
X3012515Y-24616460D02*
X3002991Y-24606936D01*
X3002991Y-24606936D02*
X2993467Y-24587888D01*
X2993467Y-24587888D02*
X2983943Y-24549793D01*
X2983943Y-24549793D02*
X2983943Y-24502174D01*
X2983943Y-24502174D02*
X2993467Y-24464079D01*
X2993467Y-24464079D02*
X3002991Y-24445031D01*
X3002991Y-24445031D02*
X3012515Y-24435508D01*
X3012515Y-24435508D02*
X3031562Y-24425984D01*
X3222039Y-24425984D02*
X3241086Y-24425984D01*
X3241086Y-24425984D02*
X3260134Y-24435508D01*
X3260134Y-24435508D02*
X3269658Y-24445031D01*
X3269658Y-24445031D02*
X3279182Y-24464079D01*
X3279182Y-24464079D02*
X3288705Y-24502174D01*
X3288705Y-24502174D02*
X3288705Y-24549793D01*
X3288705Y-24549793D02*
X3279182Y-24587888D01*
X3279182Y-24587888D02*
X3269658Y-24606936D01*
X3269658Y-24606936D02*
X3260134Y-24616460D01*
X3260134Y-24616460D02*
X3241086Y-24625984D01*
X3241086Y-24625984D02*
X3222039Y-24625984D01*
X3222039Y-24625984D02*
X3202991Y-24616460D01*
X3202991Y-24616460D02*
X3193467Y-24606936D01*
X3193467Y-24606936D02*
X3183943Y-24587888D01*
X3183943Y-24587888D02*
X3174420Y-24549793D01*
X3174420Y-24549793D02*
X3174420Y-24502174D01*
X3174420Y-24502174D02*
X3183943Y-24464079D01*
X3183943Y-24464079D02*
X3193467Y-24445031D01*
X3193467Y-24445031D02*
X3202991Y-24435508D01*
X3202991Y-24435508D02*
X3222039Y-24425984D01*
X3374420Y-24625984D02*
X3374420Y-24492650D01*
X3374420Y-24511698D02*
X3383943Y-24502174D01*
X3383943Y-24502174D02*
X3402991Y-24492650D01*
X3402991Y-24492650D02*
X3431563Y-24492650D01*
X3431563Y-24492650D02*
X3450610Y-24502174D01*
X3450610Y-24502174D02*
X3460134Y-24521222D01*
X3460134Y-24521222D02*
X3460134Y-24625984D01*
X3460134Y-24521222D02*
X3469658Y-24502174D01*
X3469658Y-24502174D02*
X3488705Y-24492650D01*
X3488705Y-24492650D02*
X3517277Y-24492650D01*
X3517277Y-24492650D02*
X3536324Y-24502174D01*
X3536324Y-24502174D02*
X3545848Y-24521222D01*
X3545848Y-24521222D02*
X3545848Y-24625984D01*
X3641086Y-24625984D02*
X3641086Y-24492650D01*
X3641086Y-24511698D02*
X3650610Y-24502174D01*
X3650610Y-24502174D02*
X3669658Y-24492650D01*
X3669658Y-24492650D02*
X3698229Y-24492650D01*
X3698229Y-24492650D02*
X3717277Y-24502174D01*
X3717277Y-24502174D02*
X3726801Y-24521222D01*
X3726801Y-24521222D02*
X3726801Y-24625984D01*
X3726801Y-24521222D02*
X3736324Y-24502174D01*
X3736324Y-24502174D02*
X3755372Y-24492650D01*
X3755372Y-24492650D02*
X3783943Y-24492650D01*
X3783943Y-24492650D02*
X3802991Y-24502174D01*
X3802991Y-24502174D02*
X3812515Y-24521222D01*
X3812515Y-24521222D02*
X3812515Y-24625984D01*
X4202991Y-24416460D02*
X4031563Y-24673603D01*
X4460134Y-24425984D02*
X4479182Y-24425984D01*
X4479182Y-24425984D02*
X4498229Y-24435508D01*
X4498229Y-24435508D02*
X4507753Y-24445031D01*
X4507753Y-24445031D02*
X4517277Y-24464079D01*
X4517277Y-24464079D02*
X4526801Y-24502174D01*
X4526801Y-24502174D02*
X4526801Y-24549793D01*
X4526801Y-24549793D02*
X4517277Y-24587888D01*
X4517277Y-24587888D02*
X4507753Y-24606936D01*
X4507753Y-24606936D02*
X4498229Y-24616460D01*
X4498229Y-24616460D02*
X4479182Y-24625984D01*
X4479182Y-24625984D02*
X4460134Y-24625984D01*
X4460134Y-24625984D02*
X4441087Y-24616460D01*
X4441087Y-24616460D02*
X4431563Y-24606936D01*
X4431563Y-24606936D02*
X4422039Y-24587888D01*
X4422039Y-24587888D02*
X4412515Y-24549793D01*
X4412515Y-24549793D02*
X4412515Y-24502174D01*
X4412515Y-24502174D02*
X4422039Y-24464079D01*
X4422039Y-24464079D02*
X4431563Y-24445031D01*
X4431563Y-24445031D02*
X4441087Y-24435508D01*
X4441087Y-24435508D02*
X4460134Y-24425984D01*
X4612515Y-24606936D02*
X4622039Y-24616460D01*
X4622039Y-24616460D02*
X4612515Y-24625984D01*
X4612515Y-24625984D02*
X4602991Y-24616460D01*
X4602991Y-24616460D02*
X4612515Y-24606936D01*
X4612515Y-24606936D02*
X4612515Y-24625984D01*
X4812515Y-24625984D02*
X4698229Y-24625984D01*
X4755372Y-24625984D02*
X4755372Y-24425984D01*
X4755372Y-24425984D02*
X4736325Y-24454555D01*
X4736325Y-24454555D02*
X4717277Y-24473603D01*
X4717277Y-24473603D02*
X4698229Y-24483127D01*
X4879182Y-24425984D02*
X5002991Y-24425984D01*
X5002991Y-24425984D02*
X4936325Y-24502174D01*
X4936325Y-24502174D02*
X4964896Y-24502174D01*
X4964896Y-24502174D02*
X4983944Y-24511698D01*
X4983944Y-24511698D02*
X4993468Y-24521222D01*
X4993468Y-24521222D02*
X5002991Y-24540269D01*
X5002991Y-24540269D02*
X5002991Y-24587888D01*
X5002991Y-24587888D02*
X4993468Y-24606936D01*
X4993468Y-24606936D02*
X4983944Y-24616460D01*
X4983944Y-24616460D02*
X4964896Y-24625984D01*
X4964896Y-24625984D02*
X4907753Y-24625984D01*
X4907753Y-24625984D02*
X4888706Y-24616460D01*
X4888706Y-24616460D02*
X4879182Y-24606936D01*
X5069658Y-24425984D02*
X5202991Y-24425984D01*
X5202991Y-24425984D02*
X5117277Y-24625984D01*
X5307753Y-24511698D02*
X5288706Y-24502174D01*
X5288706Y-24502174D02*
X5279182Y-24492650D01*
X5279182Y-24492650D02*
X5269658Y-24473603D01*
X5269658Y-24473603D02*
X5269658Y-24464079D01*
X5269658Y-24464079D02*
X5279182Y-24445031D01*
X5279182Y-24445031D02*
X5288706Y-24435508D01*
X5288706Y-24435508D02*
X5307753Y-24425984D01*
X5307753Y-24425984D02*
X5345849Y-24425984D01*
X5345849Y-24425984D02*
X5364896Y-24435508D01*
X5364896Y-24435508D02*
X5374420Y-24445031D01*
X5374420Y-24445031D02*
X5383944Y-24464079D01*
X5383944Y-24464079D02*
X5383944Y-24473603D01*
X5383944Y-24473603D02*
X5374420Y-24492650D01*
X5374420Y-24492650D02*
X5364896Y-24502174D01*
X5364896Y-24502174D02*
X5345849Y-24511698D01*
X5345849Y-24511698D02*
X5307753Y-24511698D01*
X5307753Y-24511698D02*
X5288706Y-24521222D01*
X5288706Y-24521222D02*
X5279182Y-24530746D01*
X5279182Y-24530746D02*
X5269658Y-24549793D01*
X5269658Y-24549793D02*
X5269658Y-24587888D01*
X5269658Y-24587888D02*
X5279182Y-24606936D01*
X5279182Y-24606936D02*
X5288706Y-24616460D01*
X5288706Y-24616460D02*
X5307753Y-24625984D01*
X5307753Y-24625984D02*
X5345849Y-24625984D01*
X5345849Y-24625984D02*
X5364896Y-24616460D01*
X5364896Y-24616460D02*
X5374420Y-24606936D01*
X5374420Y-24606936D02*
X5383944Y-24587888D01*
X5383944Y-24587888D02*
X5383944Y-24549793D01*
X5383944Y-24549793D02*
X5374420Y-24530746D01*
X5374420Y-24530746D02*
X5364896Y-24521222D01*
X5364896Y-24521222D02*
X5345849Y-24511698D01*
X5460134Y-24425984D02*
X5460134Y-24464079D01*
X5536325Y-24425984D02*
X5536325Y-24464079D01*
X5831563Y-24702174D02*
X5822039Y-24692650D01*
X5822039Y-24692650D02*
X5802991Y-24664079D01*
X5802991Y-24664079D02*
X5793468Y-24645031D01*
X5793468Y-24645031D02*
X5783944Y-24616460D01*
X5783944Y-24616460D02*
X5774420Y-24568841D01*
X5774420Y-24568841D02*
X5774420Y-24530746D01*
X5774420Y-24530746D02*
X5783944Y-24483127D01*
X5783944Y-24483127D02*
X5793468Y-24454555D01*
X5793468Y-24454555D02*
X5802991Y-24435508D01*
X5802991Y-24435508D02*
X5822039Y-24406936D01*
X5822039Y-24406936D02*
X5831563Y-24397412D01*
X5898229Y-24445031D02*
X5907753Y-24435508D01*
X5907753Y-24435508D02*
X5926801Y-24425984D01*
X5926801Y-24425984D02*
X5974420Y-24425984D01*
X5974420Y-24425984D02*
X5993468Y-24435508D01*
X5993468Y-24435508D02*
X6002991Y-24445031D01*
X6002991Y-24445031D02*
X6012515Y-24464079D01*
X6012515Y-24464079D02*
X6012515Y-24483127D01*
X6012515Y-24483127D02*
X6002991Y-24511698D01*
X6002991Y-24511698D02*
X5888706Y-24625984D01*
X5888706Y-24625984D02*
X6012515Y-24625984D01*
X6250610Y-24625984D02*
X6250610Y-24425984D01*
X6336325Y-24625984D02*
X6336325Y-24521222D01*
X6336325Y-24521222D02*
X6326801Y-24502174D01*
X6326801Y-24502174D02*
X6307753Y-24492650D01*
X6307753Y-24492650D02*
X6279182Y-24492650D01*
X6279182Y-24492650D02*
X6260134Y-24502174D01*
X6260134Y-24502174D02*
X6250610Y-24511698D01*
X6460134Y-24625984D02*
X6441087Y-24616460D01*
X6441087Y-24616460D02*
X6431563Y-24606936D01*
X6431563Y-24606936D02*
X6422039Y-24587888D01*
X6422039Y-24587888D02*
X6422039Y-24530746D01*
X6422039Y-24530746D02*
X6431563Y-24511698D01*
X6431563Y-24511698D02*
X6441087Y-24502174D01*
X6441087Y-24502174D02*
X6460134Y-24492650D01*
X6460134Y-24492650D02*
X6488706Y-24492650D01*
X6488706Y-24492650D02*
X6507753Y-24502174D01*
X6507753Y-24502174D02*
X6517277Y-24511698D01*
X6517277Y-24511698D02*
X6526801Y-24530746D01*
X6526801Y-24530746D02*
X6526801Y-24587888D01*
X6526801Y-24587888D02*
X6517277Y-24606936D01*
X6517277Y-24606936D02*
X6507753Y-24616460D01*
X6507753Y-24616460D02*
X6488706Y-24625984D01*
X6488706Y-24625984D02*
X6460134Y-24625984D01*
X6641087Y-24625984D02*
X6622039Y-24616460D01*
X6622039Y-24616460D02*
X6612515Y-24597412D01*
X6612515Y-24597412D02*
X6612515Y-24425984D01*
X6793468Y-24616460D02*
X6774420Y-24625984D01*
X6774420Y-24625984D02*
X6736325Y-24625984D01*
X6736325Y-24625984D02*
X6717277Y-24616460D01*
X6717277Y-24616460D02*
X6707753Y-24597412D01*
X6707753Y-24597412D02*
X6707753Y-24521222D01*
X6707753Y-24521222D02*
X6717277Y-24502174D01*
X6717277Y-24502174D02*
X6736325Y-24492650D01*
X6736325Y-24492650D02*
X6774420Y-24492650D01*
X6774420Y-24492650D02*
X6793468Y-24502174D01*
X6793468Y-24502174D02*
X6802991Y-24521222D01*
X6802991Y-24521222D02*
X6802991Y-24540269D01*
X6802991Y-24540269D02*
X6707753Y-24559317D01*
X6879182Y-24616460D02*
X6898230Y-24625984D01*
X6898230Y-24625984D02*
X6936325Y-24625984D01*
X6936325Y-24625984D02*
X6955372Y-24616460D01*
X6955372Y-24616460D02*
X6964896Y-24597412D01*
X6964896Y-24597412D02*
X6964896Y-24587888D01*
X6964896Y-24587888D02*
X6955372Y-24568841D01*
X6955372Y-24568841D02*
X6936325Y-24559317D01*
X6936325Y-24559317D02*
X6907753Y-24559317D01*
X6907753Y-24559317D02*
X6888706Y-24549793D01*
X6888706Y-24549793D02*
X6879182Y-24530746D01*
X6879182Y-24530746D02*
X6879182Y-24521222D01*
X6879182Y-24521222D02*
X6888706Y-24502174D01*
X6888706Y-24502174D02*
X6907753Y-24492650D01*
X6907753Y-24492650D02*
X6936325Y-24492650D01*
X6936325Y-24492650D02*
X6955372Y-24502174D01*
X7031563Y-24702174D02*
X7041087Y-24692650D01*
X7041087Y-24692650D02*
X7060134Y-24664079D01*
X7060134Y-24664079D02*
X7069658Y-24645031D01*
X7069658Y-24645031D02*
X7079182Y-24616460D01*
X7079182Y-24616460D02*
X7088706Y-24568841D01*
X7088706Y-24568841D02*
X7088706Y-24530746D01*
X7088706Y-24530746D02*
X7079182Y-24483127D01*
X7079182Y-24483127D02*
X7069658Y-24454555D01*
X7069658Y-24454555D02*
X7060134Y-24435508D01*
X7060134Y-24435508D02*
X7041087Y-24406936D01*
X7041087Y-24406936D02*
X7031563Y-24397412D01*
X7393468Y-24702174D02*
X7383944Y-24692650D01*
X7383944Y-24692650D02*
X7364896Y-24664079D01*
X7364896Y-24664079D02*
X7355372Y-24645031D01*
X7355372Y-24645031D02*
X7345849Y-24616460D01*
X7345849Y-24616460D02*
X7336325Y-24568841D01*
X7336325Y-24568841D02*
X7336325Y-24530746D01*
X7336325Y-24530746D02*
X7345849Y-24483127D01*
X7345849Y-24483127D02*
X7355372Y-24454555D01*
X7355372Y-24454555D02*
X7364896Y-24435508D01*
X7364896Y-24435508D02*
X7383944Y-24406936D01*
X7383944Y-24406936D02*
X7393468Y-24397412D01*
X7469658Y-24492650D02*
X7469658Y-24625984D01*
X7469658Y-24511698D02*
X7479182Y-24502174D01*
X7479182Y-24502174D02*
X7498230Y-24492650D01*
X7498230Y-24492650D02*
X7526801Y-24492650D01*
X7526801Y-24492650D02*
X7545849Y-24502174D01*
X7545849Y-24502174D02*
X7555372Y-24521222D01*
X7555372Y-24521222D02*
X7555372Y-24625984D01*
X7679182Y-24625984D02*
X7660134Y-24616460D01*
X7660134Y-24616460D02*
X7650611Y-24606936D01*
X7650611Y-24606936D02*
X7641087Y-24587888D01*
X7641087Y-24587888D02*
X7641087Y-24530746D01*
X7641087Y-24530746D02*
X7650611Y-24511698D01*
X7650611Y-24511698D02*
X7660134Y-24502174D01*
X7660134Y-24502174D02*
X7679182Y-24492650D01*
X7679182Y-24492650D02*
X7707753Y-24492650D01*
X7707753Y-24492650D02*
X7726801Y-24502174D01*
X7726801Y-24502174D02*
X7736325Y-24511698D01*
X7736325Y-24511698D02*
X7745849Y-24530746D01*
X7745849Y-24530746D02*
X7745849Y-24587888D01*
X7745849Y-24587888D02*
X7736325Y-24606936D01*
X7736325Y-24606936D02*
X7726801Y-24616460D01*
X7726801Y-24616460D02*
X7707753Y-24625984D01*
X7707753Y-24625984D02*
X7679182Y-24625984D01*
X7802992Y-24492650D02*
X7879182Y-24492650D01*
X7831563Y-24425984D02*
X7831563Y-24597412D01*
X7831563Y-24597412D02*
X7841087Y-24616460D01*
X7841087Y-24616460D02*
X7860134Y-24625984D01*
X7860134Y-24625984D02*
X7879182Y-24625984D01*
X8098230Y-24492650D02*
X8098230Y-24692650D01*
X8098230Y-24502174D02*
X8117277Y-24492650D01*
X8117277Y-24492650D02*
X8155373Y-24492650D01*
X8155373Y-24492650D02*
X8174420Y-24502174D01*
X8174420Y-24502174D02*
X8183944Y-24511698D01*
X8183944Y-24511698D02*
X8193468Y-24530746D01*
X8193468Y-24530746D02*
X8193468Y-24587888D01*
X8193468Y-24587888D02*
X8183944Y-24606936D01*
X8183944Y-24606936D02*
X8174420Y-24616460D01*
X8174420Y-24616460D02*
X8155373Y-24625984D01*
X8155373Y-24625984D02*
X8117277Y-24625984D01*
X8117277Y-24625984D02*
X8098230Y-24616460D01*
X8307753Y-24625984D02*
X8288706Y-24616460D01*
X8288706Y-24616460D02*
X8279182Y-24597412D01*
X8279182Y-24597412D02*
X8279182Y-24425984D01*
X8469658Y-24625984D02*
X8469658Y-24521222D01*
X8469658Y-24521222D02*
X8460135Y-24502174D01*
X8460135Y-24502174D02*
X8441087Y-24492650D01*
X8441087Y-24492650D02*
X8402992Y-24492650D01*
X8402992Y-24492650D02*
X8383944Y-24502174D01*
X8469658Y-24616460D02*
X8450611Y-24625984D01*
X8450611Y-24625984D02*
X8402992Y-24625984D01*
X8402992Y-24625984D02*
X8383944Y-24616460D01*
X8383944Y-24616460D02*
X8374420Y-24597412D01*
X8374420Y-24597412D02*
X8374420Y-24578365D01*
X8374420Y-24578365D02*
X8383944Y-24559317D01*
X8383944Y-24559317D02*
X8402992Y-24549793D01*
X8402992Y-24549793D02*
X8450611Y-24549793D01*
X8450611Y-24549793D02*
X8469658Y-24540269D01*
X8536325Y-24492650D02*
X8612515Y-24492650D01*
X8564896Y-24425984D02*
X8564896Y-24597412D01*
X8564896Y-24597412D02*
X8574420Y-24616460D01*
X8574420Y-24616460D02*
X8593468Y-24625984D01*
X8593468Y-24625984D02*
X8612515Y-24625984D01*
X8755373Y-24616460D02*
X8736325Y-24625984D01*
X8736325Y-24625984D02*
X8698230Y-24625984D01*
X8698230Y-24625984D02*
X8679182Y-24616460D01*
X8679182Y-24616460D02*
X8669658Y-24597412D01*
X8669658Y-24597412D02*
X8669658Y-24521222D01*
X8669658Y-24521222D02*
X8679182Y-24502174D01*
X8679182Y-24502174D02*
X8698230Y-24492650D01*
X8698230Y-24492650D02*
X8736325Y-24492650D01*
X8736325Y-24492650D02*
X8755373Y-24502174D01*
X8755373Y-24502174D02*
X8764896Y-24521222D01*
X8764896Y-24521222D02*
X8764896Y-24540269D01*
X8764896Y-24540269D02*
X8669658Y-24559317D01*
X8936325Y-24625984D02*
X8936325Y-24425984D01*
X8936325Y-24616460D02*
X8917277Y-24625984D01*
X8917277Y-24625984D02*
X8879182Y-24625984D01*
X8879182Y-24625984D02*
X8860135Y-24616460D01*
X8860135Y-24616460D02*
X8850611Y-24606936D01*
X8850611Y-24606936D02*
X8841087Y-24587888D01*
X8841087Y-24587888D02*
X8841087Y-24530746D01*
X8841087Y-24530746D02*
X8850611Y-24511698D01*
X8850611Y-24511698D02*
X8860135Y-24502174D01*
X8860135Y-24502174D02*
X8879182Y-24492650D01*
X8879182Y-24492650D02*
X8917277Y-24492650D01*
X8917277Y-24492650D02*
X8936325Y-24502174D01*
X9012516Y-24702174D02*
X9022039Y-24692650D01*
X9022039Y-24692650D02*
X9041087Y-24664079D01*
X9041087Y-24664079D02*
X9050611Y-24645031D01*
X9050611Y-24645031D02*
X9060135Y-24616460D01*
X9060135Y-24616460D02*
X9069658Y-24568841D01*
X9069658Y-24568841D02*
X9069658Y-24530746D01*
X9069658Y-24530746D02*
X9060135Y-24483127D01*
X9060135Y-24483127D02*
X9050611Y-24454555D01*
X9050611Y-24454555D02*
X9041087Y-24435508D01*
X9041087Y-24435508D02*
X9022039Y-24406936D01*
X9022039Y-24406936D02*
X9012516Y-24397412D01*
M02*
