M48
; DRILL file {KiCad 8.0.4} date 2024-11-18T10:43:45+0000
; FORMAT={-:-/ absolute / inch / decimal}
; #@! TF.CreationDate,2024-11-18T10:43:45+00:00
; #@! TF.GenerationSoftware,Kicad,Pcbnew,8.0.4
; #@! TF.FileFunction,Plated,1,2,PTH
FMAT,2
INCH
; #@! TA.AperFunction,Plated,PTH,ViaDrill
T1C0.0118
; #@! TA.AperFunction,Plated,PTH,ViaDrill
T2C0.0157
; #@! TA.AperFunction,Plated,PTH,ComponentDrill
T3C0.0276
; #@! TA.AperFunction,Plated,PTH,ViaDrill
T4C0.0295
; #@! TA.AperFunction,Plated,PTH,ComponentDrill
T5C0.0315
; #@! TA.AperFunction,Plated,PTH,ComponentDrill
T6C0.0394
; #@! TA.AperFunction,Plated,PTH,ComponentDrill
T7C0.0433
; #@! TA.AperFunction,Plated,PTH,ComponentDrill
T8C0.0591
; #@! TA.AperFunction,Plated,PTH,ComponentDrill
T9C0.0787
; #@! TA.AperFunction,Plated,PTH,ComponentDrill
T10C0.0984
%
G90
G05
T1
X10.65Y-5.2
T2
X7.95Y-1.65
X8.65Y-3.825
X8.7Y-7.75
X9.675Y-1.75
X12.75Y-7.75
T3
X11.9Y-2.5
X12.0Y-2.1
X12.0Y-2.3
X12.0Y-2.4
X12.0Y-2.6
X12.1Y-2.2
T4
X1.025Y-1.2
X1.025Y-1.3
X1.025Y-1.5
X1.025Y-5.2
X1.025Y-5.3
X1.075Y-1.6
X1.125Y-1.7
X1.175Y-1.8
X1.2Y-4.45
X1.2Y-5.45
X1.225Y-2.05
X1.275Y-2.15
X1.45Y-1.8
X1.5Y-2.775
X1.5Y-3.275
X1.7Y-2.65
X1.75Y-3.275
X1.8Y-2.725
X1.8Y-3.6
X1.85Y-2.375
X1.85Y-3.275
X1.85Y-5.45
X1.9Y-2.6
X1.9Y-5.2
X1.925Y-5.3
X1.95Y-2.375
X2.0Y-2.625
X2.0Y-4.45
X2.05Y-2.375
X2.1Y-2.675
X2.1Y-5.075
X2.15Y-1.6
X2.15Y-2.375
X2.2Y-2.725
X2.2Y-4.6
X2.2Y-4.9
X2.25Y-1.6
X2.25Y-2.375
X2.3Y-4.6
X2.3Y-4.95
X2.35Y-2.375
X2.4Y-4.6
X2.4Y-5.0
X2.45Y-2.375
X2.45Y-5.6
X2.5Y-4.6
X2.55Y-2.375
X2.55Y-5.5
X2.55Y-5.65
X2.625Y-3.25
X2.65Y-5.55
X2.7Y-3.35
X2.75Y-5.35
X2.8Y-3.45
X2.9Y-2.85
X2.95Y-5.05
X3.0Y-2.9
X3.0Y-3.3
X3.075Y-1.875
X3.1Y-2.925
X3.15Y-5.125
X3.15Y-5.775
X3.2Y-1.825
X3.2Y-3.95
X3.2Y-5.225
X3.25Y-3.65
X3.25Y-5.825
X3.3Y-3.75
X3.3Y-4.85
X3.3Y-5.4
X3.35Y-2.4
X3.35Y-3.85
X3.35Y-5.775
X3.425Y-4.8
X3.45Y-2.425
X3.475Y-4.9
X3.5Y-3.375
X3.525Y-3.55
X3.525Y-5.0
X3.55Y-4.5
X3.55Y-4.65
X3.575Y-3.1
X3.6Y-3.6
X3.65Y-4.65
X3.65Y-5.0
X3.7Y-3.65
X3.75Y-2.9
X3.75Y-3.4
X3.75Y-5.0
X3.75Y-5.1
X3.775Y-3.7
X3.8Y-4.65
X3.8Y-6.35
X3.85Y-5.0
X3.9Y-5.65
X4.0Y-2.9
X4.0Y-5.7
X4.05Y-3.15
X4.05Y-5.4
X4.075Y-1.95
X4.1Y-3.7
X4.1Y-5.725
X4.15Y-4.7
X4.2Y-5.6
X4.25Y-2.9
X4.25Y-3.7
X4.25Y-5.05
X4.25Y-5.375
X4.3Y-1.9
X4.3Y-2.0
X4.3Y-5.5
X4.325Y-1.65
X4.35Y-3.1
X4.35Y-3.4
X4.35Y-4.0
X4.35Y-4.8
X4.4Y-1.625
X4.4Y-3.0
X4.4Y-4.2
X4.4Y-5.55
X4.425Y-5.0
X4.45Y-1.9
X4.45Y-2.0
X4.475Y-4.925
X4.5Y-1.625
X4.5Y-3.8
X4.5Y-5.325
X4.525Y-6.45
X4.55Y-1.95
X4.55Y-2.475
X4.6Y-3.55
X4.6Y-3.75
X4.6Y-4.0
X4.6Y-4.775
X4.65Y-1.95
X4.65Y-4.7
X4.7Y-3.675
X4.7Y-3.8
X4.7Y-4.6
X4.7Y-8.65
X4.75Y-1.95
X4.8Y-2.425
X4.85Y-1.95
X4.9Y-2.725
X4.9Y-5.1
X4.95Y-2.25
X5.0Y-2.425
X5.025Y-7.8
X5.05Y-1.85
X5.1Y-5.4
X5.125Y-2.2
X5.15Y-2.3
X5.175Y-3.2
X5.175Y-4.3
X5.2Y-3.65
X5.2Y-3.8
X5.225Y-1.85
X5.225Y-3.1
X5.225Y-4.2
X5.25Y-6.4
X5.2598Y-7.3
X5.35Y-5.1
X5.375Y-2.2
X5.375Y-3.775
X5.45Y-1.15
X5.45Y-1.3
X5.45Y-1.5
X5.45Y-2.2
X5.45Y-7.0
X5.5Y-2.1
X5.5Y-5.45
X5.55Y-1.3
X5.575Y-2.95
X5.575Y-4.05
X5.65Y-1.35
X5.65Y-8.725
X5.675Y-3.55
X5.675Y-4.65
X5.7Y-2.15
X5.725Y-3.45
X5.725Y-4.55
X5.75Y-2.075
X5.85Y-2.675
X5.85Y-8.1
X5.875Y-1.35
X5.9Y-2.125
X5.925Y-3.85
X5.925Y-5.1
X5.95Y-2.675
X6.025Y-6.45
X6.05Y-5.1
X6.175Y-3.25
X6.175Y-4.35
X6.2Y-6.5
X6.225Y-1.85
X6.225Y-3.15
X6.225Y-4.25
X6.225Y-5.15
X6.3Y-1.775
X6.35Y-5.2
X6.4Y-1.475
X6.4Y-2.1
X6.45Y-5.15
X6.45Y-6.3
X6.55Y-1.325
X6.55Y-2.075
X6.55Y-5.2
X6.55Y-8.725
X6.6Y-1.475
X6.6Y-4.9
X6.65Y-5.15
X6.675Y-4.0
X6.8Y-2.75
X6.8Y-3.9
X6.85Y-3.8
X6.85Y-5.1
X6.85Y-5.45
X6.85Y-7.25
X6.925Y-2.675
X6.95Y-5.3
X6.95Y-5.45
X6.95Y-7.15
X7.05Y-1.5
X7.05Y-1.7
X7.05Y-2.15
X7.05Y-5.3
X7.1Y-4.6
X7.1Y-4.95
X7.125Y-5.35
X7.15Y-2.2
X7.15Y-3.15
X7.175Y-3.7
X7.175Y-4.5
X7.175Y-5.0
X7.2Y-1.8
X7.2Y-5.1
X7.2Y-5.35
X7.225Y-3.8
X7.25Y-2.5
X7.25Y-3.65
X7.25Y-4.4
X7.275Y-3.925
X7.275Y-5.2
X7.325Y-1.475
X7.375Y-4.65
X7.375Y-4.8
X7.375Y-7.2
X7.4Y-1.475
X7.4Y-2.15
X7.4Y-7.8
X7.425Y-4.9
X7.45Y-5.0
X7.45Y-5.1
X7.525Y-3.35
X7.525Y-7.75
X7.55Y-1.925
X7.6Y-2.2
X7.675Y-4.45
X7.675Y-5.4
X7.675Y-6.65
X7.7Y-3.6
X7.725Y-3.5
X7.75Y-2.45
X7.75Y-2.75
X7.8Y-2.125
X7.8Y-5.05
X7.825Y-8.725
X7.85Y-2.625
X7.85Y-5.15
X7.85Y-5.45
X7.875Y-7.1
X7.9Y-2.375
X7.9Y-5.775
X7.95Y-2.125
X7.95Y-2.3
X7.95Y-5.45
X7.95Y-6.4
X8.0Y-2.525
X8.025Y-5.35
X8.05Y-2.2
X8.05Y-2.3
X8.05Y-3.2
X8.05Y-3.65
X8.05Y-4.55
X8.05Y-4.65
X8.1Y-2.525
X8.1Y-3.1
X8.1Y-3.55
X8.1Y-4.05
X8.1Y-4.15
X8.1Y-6.45
X8.125Y-4.9
X8.125Y-7.1
X8.15Y-2.725
X8.15Y-3.0
X8.15Y-3.25
X8.175Y-4.25
X8.175Y-4.45
X8.175Y-5.3
X8.2Y-3.15
X8.2Y-4.8
X8.225Y-4.15
X8.25Y-2.725
X8.25Y-3.05
X8.3Y-2.95
X8.35Y-2.85
X8.35Y-4.05
X8.35Y-4.2
X8.375Y-4.3
X8.375Y-5.25
X8.4Y-3.3
X8.45Y-1.175
X8.45Y-4.95
X8.45Y-5.15
X8.475Y-5.575
X8.5Y-1.95
X8.6Y-2.15
X8.6Y-2.45
X8.6Y-8.6
X8.625Y-1.425
X8.625Y-3.3
X8.625Y-5.7
X8.65Y-3.65
X8.675Y-4.925
X8.7Y-2.2
X8.7Y-5.0
X8.7Y-5.1
X8.7Y-5.7
X8.75Y-3.95
X8.775Y-3.85
X8.775Y-6.5
X8.8Y-5.675
X8.85Y-3.3
X8.85Y-5.2
X8.875Y-7.1
X8.9Y-3.5
X8.95Y-2.3
X8.95Y-2.75
X8.95Y-4.2
X8.95Y-4.45
X8.975Y-5.05
X9.025Y-5.375
X9.05Y-2.6
X9.05Y-6.4
X9.15Y-2.1
X9.15Y-2.3
X9.15Y-2.775
X9.2Y-4.7
X9.2Y-6.35
X9.225Y-2.1
X9.225Y-2.4
X9.35Y-5.575
X9.375Y-6.5
X9.45Y-2.3
X9.45Y-5.475
X9.475Y-5.575
X9.5Y-5.375
X9.5Y-7.0
X9.55Y-2.2
X9.55Y-2.625
X9.55Y-4.0
X9.6Y-3.8
X9.6Y-3.9
X9.6Y-4.25
X9.6Y-4.35
X9.65Y-2.35
X9.725Y-5.875
X9.75Y-2.625
X9.75Y-6.5
X9.75Y-7.8
X9.7875Y-7.8875
X9.8Y-5.225
X9.8Y-5.625
X9.85Y-2.15
X9.875Y-4.45
X9.875Y-4.9
X9.925Y-8.0
X9.95Y-5.575
X9.975Y-3.8
X9.975Y-3.9
X9.975Y-4.0
X10.0Y-2.575
X10.0Y-5.125
X10.0Y-5.35
X10.0Y-5.725
X10.05Y-3.3
X10.05Y-3.5
X10.05Y-5.625
X10.075Y-6.35
X10.1Y-2.5
X10.1Y-3.4
X10.1Y-5.35
X10.15Y-3.55
X10.15Y-3.8
X10.15Y-4.4
X10.15Y-5.25
X10.15Y-5.675
X10.15Y-8.7
X10.2Y-2.2
X10.2Y-2.65
X10.2Y-2.75
X10.2Y-3.0
X10.2Y-3.3
X10.2Y-3.45
X10.2Y-4.1
X10.2Y-5.15
X10.25Y-3.65
X10.275Y-6.6
X10.3Y-1.8
X10.3Y-8.55
X10.4Y-1.875
X10.4Y-2.25
X10.4Y-2.5
X10.4Y-2.8
X10.4Y-5.55
X10.45Y-1.775
X10.45Y-3.85
X10.475Y-2.825
X10.475Y-4.675
X10.5Y-1.925
X10.5Y-5.35
X10.5Y-7.75
X10.525Y-1.325
X10.55Y-6.5
X10.575Y-5.425
X10.6Y-1.25
X10.6Y-2.0
X10.65Y-3.05
X10.65Y-3.15
X10.65Y-4.4
X10.7Y-1.425
X10.7Y-1.5
X10.7Y-4.5
X10.7Y-4.85
X10.7Y-5.5
X10.75Y-2.2
X10.75Y-2.675
X10.75Y-7.1
X10.775Y-2.6
X10.775Y-3.875
X10.8Y-2.325
X10.8Y-5.5
X10.825Y-1.775
X10.85Y-2.0
X10.85Y-3.925
X10.9Y-5.45
X10.925Y-2.525
X10.925Y-3.25
X10.925Y-3.975
X10.95Y-4.6
X10.95Y-4.8
X10.975Y-2.05
X10.975Y-2.2
X11.0Y-4.025
X11.05Y-2.65
X11.05Y-4.2
X11.05Y-5.3
X11.1Y-3.95
X11.125Y-3.55
X11.125Y-4.15
X11.15Y-2.3
X11.15Y-2.8
X11.15Y-5.3
X11.175Y-3.45
X11.1875Y-3.8125
X11.2Y-2.9
X11.2Y-4.8
X11.225Y-2.35
X11.25Y-5.225
X11.25Y-6.35
X11.275Y-1.75
X11.275Y-3.925
X11.35Y-4.15
X11.4Y-2.35
X11.45Y-5.2
X11.475Y-5.4
X11.5Y-2.0
X11.5Y-2.3
X11.5Y-2.4
X11.5Y-7.8
X11.525Y-5.5
X11.65Y-2.9
X11.65Y-3.25
X11.65Y-3.35
X11.65Y-4.65
X11.65Y-6.3
X11.65Y-8.55
X11.7Y-2.725
X11.725Y-4.3
X11.75Y-2.05
X11.75Y-2.4
X11.8Y-1.225
X11.8Y-3.65
X11.825Y-3.4
X11.825Y-4.9
X11.85Y-2.75
X11.85Y-8.65
X11.9Y-4.2
X11.9Y-4.3
X11.9Y-4.5
X11.925Y-3.45
X11.975Y-3.25
X11.975Y-3.35
X12.0Y-4.05
X12.05Y-3.85
X12.15Y-5.55
X12.2Y-7.3
X12.25Y-3.25
X12.3Y-3.15
X12.325Y-2.975
X12.325Y-3.75
X12.35Y-4.2
X12.35Y-5.05
X12.375Y-6.35
X12.425Y-3.45
X12.45Y-2.1
X12.45Y-5.1
X12.55Y-1.15
X12.55Y-3.05
X12.55Y-4.8
X12.55Y-8.6
X12.575Y-7.05
X12.6Y-2.175
X12.6Y-4.7
X12.65Y-4.6
X12.7Y-3.3
X12.75Y-5.35
X12.85Y-3.3
X12.875Y-5.1
X12.9Y-8.65
X12.925Y-2.1
X12.95Y-5.7
X13.05Y-2.075
X13.125Y-2.075
X13.125Y-7.15
X13.2Y-3.4
X13.375Y-5.65
X13.55Y-5.05
X13.725Y-7.05
X13.85Y-5.2
X14.85Y-5.225
X15.05Y-5.275
T5
X1.3Y-3.45
X1.3Y-3.65
X1.4Y-2.5
X1.4Y-3.1
X1.4004Y-3.55
X1.4004Y-3.65
X1.4004Y-3.75
X1.4004Y-3.85
X1.4004Y-3.95
X1.4004Y-4.05
X1.4004Y-4.15
X1.4004Y-4.25
X1.4004Y-4.35
X1.4004Y-4.45
X1.5Y-2.5
X1.5Y-3.1
X1.6Y-2.5
X1.6Y-3.1
X1.6421Y-5.6
X1.7Y-2.5
X1.7Y-3.1
X1.7004Y-3.55
X1.7004Y-3.65
X1.7004Y-3.75
X1.7004Y-3.85
X1.7004Y-3.95
X1.7004Y-4.05
X1.7004Y-4.15
X1.7004Y-4.25
X1.7004Y-4.35
X1.7004Y-4.45
X1.8Y-2.5
X1.8Y-3.1
X1.9Y-2.5
X1.9Y-3.1
X1.95Y-5.5
X2.0Y-2.5
X2.0Y-3.1
X2.1Y-2.5
X2.1Y-3.1
X2.1Y-3.55
X2.1Y-3.65
X2.1Y-3.75
X2.1Y-3.85
X2.1Y-3.95
X2.1Y-4.05
X2.1Y-4.15
X2.1Y-4.25
X2.1Y-4.35
X2.1Y-4.45
X2.2Y-2.5
X2.2Y-3.1
X2.2421Y-5.6
X2.3Y-2.5
X2.3Y-3.1
X2.35Y-5.5
X2.4Y-2.5
X2.4Y-3.1
X2.4Y-3.55
X2.4Y-3.65
X2.4Y-3.75
X2.4Y-3.85
X2.4Y-3.95
X2.4Y-4.05
X2.4Y-4.15
X2.4Y-4.25
X2.4Y-4.35
X2.4Y-4.45
X2.5Y-2.5
X2.5Y-3.1
X2.6Y-2.5
X2.6Y-3.1
X2.7Y-2.5
X2.7Y-3.1
X2.8Y-2.5
X2.8Y-3.1
X2.8Y-3.55
X2.8Y-3.65
X2.8Y-3.75
X2.8Y-3.85
X2.8Y-3.95
X2.8Y-4.05
X2.8Y-4.15
X2.8Y-4.25
X2.8Y-4.35
X2.8Y-4.45
X2.8Y-5.0743
X2.8Y-5.1743
X2.9Y-2.5
X2.9Y-3.1
X2.95Y-5.1243
X2.95Y-5.2243
X3.0Y-2.5
X3.0Y-3.1
X3.05Y-5.1243
X3.05Y-5.2243
X3.1Y-2.5
X3.1Y-3.1
X3.1Y-3.2
X3.1Y-3.55
X3.1Y-3.65
X3.1Y-3.75
X3.1Y-3.85
X3.1Y-3.95
X3.1Y-4.05
X3.1Y-4.15
X3.1Y-4.25
X3.1Y-4.35
X3.1Y-4.45
X3.2Y-2.5
X3.2Y-3.1
X3.3Y-2.5
X3.3Y-3.1
X3.3Y-3.2
X3.55Y-2.5
X3.55Y-2.8
X3.55Y-4.0004
X3.55Y-4.3004
X3.65Y-2.5
X3.65Y-2.8
X3.65Y-3.0
X3.65Y-3.3
X3.65Y-3.5
X3.65Y-3.8
X3.65Y-4.0004
X3.65Y-4.3004
X3.65Y-4.5
X3.65Y-4.8
X3.75Y-2.5
X3.75Y-2.8
X3.75Y-3.0
X3.75Y-3.3
X3.75Y-3.5
X3.75Y-3.8
X3.75Y-4.0004
X3.75Y-4.3004
X3.75Y-4.5
X3.75Y-4.8
X3.85Y-2.5
X3.85Y-2.8
X3.85Y-3.0
X3.85Y-3.3
X3.85Y-3.5
X3.85Y-3.8
X3.85Y-4.0004
X3.85Y-4.3004
X3.85Y-4.5
X3.85Y-4.8
X3.95Y-2.5
X3.95Y-2.8
X3.95Y-3.0
X3.95Y-3.3
X3.95Y-3.5
X3.95Y-3.8
X3.95Y-4.0004
X3.95Y-4.3004
X3.95Y-4.5
X3.95Y-4.8
X4.05Y-2.5
X4.05Y-2.8
X4.05Y-3.0
X4.05Y-3.3
X4.05Y-3.5
X4.05Y-3.8
X4.05Y-4.0004
X4.05Y-4.3004
X4.05Y-4.5
X4.05Y-4.8
X4.15Y-2.5
X4.15Y-2.8
X4.15Y-3.0
X4.15Y-3.3
X4.15Y-3.5
X4.15Y-3.8
X4.15Y-4.0004
X4.15Y-4.3004
X4.15Y-4.5
X4.15Y-4.8
X4.25Y-2.5
X4.25Y-2.8
X4.25Y-3.0
X4.25Y-3.3
X4.25Y-3.5
X4.25Y-3.8
X4.25Y-4.0004
X4.25Y-4.3004
X4.25Y-4.5
X4.25Y-4.8
X4.5Y-4.0
X4.5Y-4.1
X4.5Y-4.2
X4.5Y-4.3
X4.5Y-4.4
X4.5Y-4.5
X4.5Y-4.6
X4.5Y-4.7
X4.5Y-4.8
X4.5004Y-2.9
X4.5004Y-3.0
X4.5004Y-3.1
X4.5004Y-3.2
X4.5004Y-3.3
X4.5004Y-3.4
X4.5004Y-3.5
X4.5004Y-3.6
X4.5004Y-3.7
X4.8Y-4.0
X4.8Y-4.1
X4.8Y-4.2
X4.8Y-4.3
X4.8Y-4.4
X4.8Y-4.5
X4.8Y-4.6
X4.8Y-4.7
X4.8Y-4.8
X4.8004Y-2.9
X4.8004Y-3.0
X4.8004Y-3.1
X4.8004Y-3.2
X4.8004Y-3.3
X4.8004Y-3.4
X4.8004Y-3.5
X4.8004Y-3.6
X4.8004Y-3.7
X5.0Y-2.9
X5.0Y-3.0
X5.0Y-3.1
X5.0Y-3.2
X5.0Y-3.3
X5.0Y-3.4
X5.0Y-3.5
X5.0Y-3.6
X5.0Y-3.7
X5.0Y-4.0
X5.0Y-4.1
X5.0Y-4.2
X5.0Y-4.3
X5.0Y-4.4
X5.0Y-4.5
X5.0Y-4.6
X5.0Y-4.7
X5.0Y-4.8
X5.0Y-5.0
X5.0Y-5.3
X5.0Y-5.4
X5.1Y-5.0
X5.1Y-5.3
X5.2Y-5.0
X5.2Y-5.3
X5.2Y-5.4
X5.25Y-2.2007
X5.25Y-2.3007
X5.3Y-2.75
X5.3Y-2.9
X5.3Y-3.0
X5.3Y-3.1
X5.3Y-3.2
X5.3Y-3.3
X5.3Y-3.4
X5.3Y-3.5
X5.3Y-3.6
X5.3Y-3.7
X5.3Y-3.8961
X5.3Y-4.0
X5.3Y-4.1
X5.3Y-4.2
X5.3Y-4.3
X5.3Y-4.4
X5.3Y-4.5
X5.3Y-4.6
X5.3Y-4.7
X5.3Y-4.8
X5.3Y-5.0
X5.3Y-5.3
X5.4Y-2.0
X5.4Y-2.3
X5.4Y-5.0
X5.4Y-5.3
X5.5Y-2.0
X5.5Y-2.3
X5.5Y-2.75
X5.5Y-2.9
X5.5Y-3.0
X5.5Y-3.1
X5.5Y-3.2
X5.5Y-3.3
X5.5Y-3.4
X5.5Y-3.5
X5.5Y-3.6
X5.5Y-3.7
X5.5Y-3.8961
X5.5Y-4.0
X5.5Y-4.1
X5.5Y-4.2
X5.5Y-4.3
X5.5Y-4.4
X5.5Y-4.5
X5.5Y-4.6
X5.5Y-4.7
X5.5Y-4.8
X5.5Y-5.0
X5.5Y-5.3
X5.55Y-1.5
X5.55Y-1.9
X5.6Y-2.0
X5.6Y-2.3
X5.6Y-5.0
X5.6Y-5.3
X5.65Y-1.5
X5.65Y-1.9
X5.7Y-2.0
X5.7Y-2.3
X5.7Y-5.0
X5.7Y-5.3
X5.75Y-1.5
X5.75Y-1.9
X5.8Y-2.0
X5.8Y-2.3
X5.8Y-2.9
X5.8Y-3.0
X5.8Y-3.1
X5.8Y-3.2
X5.8Y-3.3
X5.8Y-3.4
X5.8Y-3.5
X5.8Y-3.6
X5.8Y-3.7
X5.8Y-4.0
X5.8Y-4.1
X5.8Y-4.2
X5.8Y-4.3
X5.8Y-4.4
X5.8Y-4.5
X5.8Y-4.6
X5.8Y-4.7
X5.8Y-4.8
X5.8Y-5.0
X5.8Y-5.3
X5.9Y-2.0
X5.9Y-2.3
X6.0Y-1.4
X6.0Y-1.7
X6.0Y-2.0
X6.0Y-2.3
X6.0Y-2.9
X6.0Y-3.0
X6.0Y-3.1
X6.0Y-3.2
X6.0Y-3.3
X6.0Y-3.4
X6.0Y-3.5
X6.0Y-3.6
X6.0Y-3.7
X6.0Y-4.0
X6.0Y-4.1
X6.0Y-4.2
X6.0Y-4.3
X6.0Y-4.4
X6.0Y-4.5
X6.0Y-4.6
X6.0Y-4.7
X6.0Y-4.8
X6.0Y-5.0
X6.0Y-5.3
X6.1Y-1.4
X6.1Y-1.7
X6.1Y-5.0
X6.1Y-5.3
X6.15Y-2.0
X6.15Y-2.1
X6.2Y-1.4
X6.2Y-1.7
X6.2Y-5.0
X6.2Y-5.3
X6.3Y-1.4
X6.3Y-1.7
X6.3Y-2.0004
X6.3Y-2.3004
X6.3Y-2.75
X6.3Y-2.9
X6.3Y-3.0
X6.3Y-3.1
X6.3Y-3.2
X6.3Y-3.3
X6.3Y-3.4
X6.3Y-3.5
X6.3Y-3.6
X6.3Y-3.7
X6.3Y-3.85
X6.3Y-4.0
X6.3Y-4.1
X6.3Y-4.2
X6.3Y-4.3
X6.3Y-4.4
X6.3Y-4.5
X6.3Y-4.6
X6.3Y-4.7
X6.3Y-4.8
X6.3Y-5.0
X6.3Y-5.3
X6.4Y-1.4
X6.4Y-1.7
X6.4Y-1.8
X6.4Y-1.9
X6.4Y-2.0004
X6.4Y-2.3004
X6.4Y-5.0
X6.4Y-5.3
X6.5Y-1.4
X6.5Y-1.7
X6.5Y-1.85
X6.5Y-2.0004
X6.5Y-2.3004
X6.5Y-2.75
X6.5Y-2.9
X6.5Y-3.0
X6.5Y-3.1
X6.5Y-3.2
X6.5Y-3.3
X6.5Y-3.4
X6.5Y-3.5
X6.5Y-3.6
X6.5Y-3.7
X6.5Y-3.85
X6.5Y-4.0
X6.5Y-4.1
X6.5Y-4.2
X6.5Y-4.3
X6.5Y-4.4
X6.5Y-4.5
X6.5Y-4.6
X6.5Y-4.7
X6.5Y-4.8
X6.5Y-5.0
X6.5Y-5.3
X6.6Y-1.4
X6.6Y-1.7
X6.6Y-2.0004
X6.6Y-2.3004
X6.6Y-5.0
X6.6Y-5.3
X6.7Y-1.4
X6.7Y-1.7
X6.7Y-2.0004
X6.7Y-2.3004
X6.7Y-5.0
X6.7Y-5.3
X6.8Y-1.4
X6.8Y-1.7
X6.8Y-2.0004
X6.8Y-2.3004
X6.8Y-2.9
X6.8Y-3.0
X6.8Y-3.1
X6.8Y-3.2
X6.8Y-3.3
X6.8Y-3.4
X6.8Y-3.5
X6.8Y-3.6
X6.8Y-3.7
X6.8Y-4.0
X6.8Y-4.1
X6.8Y-4.2
X6.8Y-4.3
X6.8Y-4.4
X6.8Y-4.5
X6.8Y-4.6
X6.8Y-4.7
X6.8Y-4.8
X6.8Y-5.0
X6.8Y-5.3
X6.9Y-1.4
X6.9Y-1.7
X6.9Y-1.85
X6.9Y-2.0004
X6.9Y-2.3004
X7.0Y-2.8
X7.0Y-2.9
X7.0Y-3.0
X7.0Y-3.1
X7.0Y-3.2
X7.0Y-3.3
X7.0Y-3.4
X7.0Y-3.5
X7.0Y-3.6
X7.0Y-3.7
X7.0Y-3.8
X7.0Y-3.9
X7.0Y-4.1
X7.0Y-4.2
X7.0Y-4.3
X7.0Y-4.4
X7.0Y-4.5
X7.0Y-4.6
X7.0Y-4.7
X7.0Y-4.8
X7.0Y-4.9
X7.0Y-5.0
X7.0Y-5.1
X7.0Y-5.2
X7.05Y-1.4
X7.05Y-1.8
X7.05Y-1.9
X7.05Y-2.0
X7.2Y-1.4
X7.2Y-1.7
X7.2Y-2.0
X7.2Y-2.3
X7.3Y-1.4
X7.3Y-1.7
X7.3Y-2.0
X7.3Y-2.3
X7.3Y-5.4
X7.4Y-1.4
X7.4Y-1.7
X7.4Y-1.85
X7.4Y-2.0
X7.4Y-2.3
X7.5Y-1.4
X7.5Y-1.7
X7.5Y-2.0
X7.5Y-2.3
X7.5Y-5.4
X7.6Y-1.4
X7.6Y-1.7
X7.6Y-1.85
X7.6Y-2.0
X7.6Y-2.3
X7.6Y-2.8
X7.6Y-2.9
X7.6Y-3.0
X7.6Y-3.1
X7.6Y-3.2
X7.6Y-3.3
X7.6Y-3.4
X7.6Y-3.5
X7.6Y-3.6
X7.6Y-3.7
X7.6Y-3.8
X7.6Y-3.9
X7.6Y-4.1
X7.6Y-4.2
X7.6Y-4.3
X7.6Y-4.4
X7.6Y-4.5
X7.6Y-4.6
X7.6Y-4.7
X7.6Y-4.8
X7.6Y-4.9
X7.6Y-5.0
X7.6Y-5.1
X7.6Y-5.2
X7.7Y-1.4
X7.7Y-1.7
X7.7Y-2.0
X7.7Y-2.3
X7.7Y-3.1
X7.7Y-3.2
X7.7043Y-3.35
X7.8Y-1.4
X7.8Y-1.7
X7.8Y-2.0
X7.8Y-2.3
X7.85Y-3.1
X7.85Y-3.2
X7.8543Y-3.35
X7.95Y-1.45
X7.95Y-2.9
X7.95Y-3.0
X7.95Y-3.1
X7.95Y-3.2
X7.95Y-3.3
X7.95Y-3.4
X7.95Y-3.5
X7.95Y-3.6
X7.95Y-3.7
X7.95Y-3.8
X7.95Y-3.9
X7.95Y-4.0
X7.95Y-4.1
X7.95Y-4.2
X7.95Y-4.3
X7.95Y-4.4
X7.95Y-4.5
X7.95Y-4.6
X7.95Y-4.7
X7.95Y-4.8
X8.15Y-1.45
X8.25Y-1.45
X8.25Y-1.55
X8.35Y-1.45
X8.35Y-1.55
X8.35Y-1.65
X8.35Y-1.75
X8.45Y-1.55
X8.45Y-1.65
X8.5Y-1.85
X8.5Y-2.6
X8.55Y-2.9
X8.55Y-3.0
X8.55Y-3.1
X8.55Y-3.2
X8.55Y-3.3
X8.55Y-3.4
X8.55Y-3.5
X8.55Y-3.6
X8.55Y-3.7
X8.55Y-3.8
X8.55Y-3.9
X8.55Y-4.0
X8.55Y-4.1
X8.55Y-4.2
X8.55Y-4.3
X8.55Y-4.4
X8.55Y-4.5
X8.55Y-4.6
X8.55Y-4.7
X8.55Y-4.8
X8.6Y-2.6
X8.6Y-2.75
X8.6496Y-1.85
X8.7496Y-1.85
X8.75Y-2.1
X8.75Y-2.4
X8.75Y-2.8
X8.75Y-2.9
X8.75Y-3.0
X8.75Y-3.1
X8.75Y-3.2
X8.75Y-3.3
X8.75Y-3.4
X8.75Y-3.5
X8.85Y-2.05
X8.85Y-2.45
X8.85Y-3.8
X8.85Y-3.9
X8.85Y-4.0
X8.85Y-4.1
X8.85Y-4.2
X8.85Y-4.3
X8.85Y-4.4
X8.85Y-4.5
X8.85Y-4.6
X8.85Y-4.7
X8.85Y-4.8
X8.85Y-4.9
X8.95Y-2.05
X8.95Y-2.45
X9.05Y-2.1
X9.05Y-2.2
X9.05Y-2.3
X9.05Y-2.4
X9.05Y-2.8
X9.05Y-2.9
X9.05Y-3.0
X9.05Y-3.1
X9.05Y-3.2
X9.05Y-3.3
X9.05Y-3.4
X9.05Y-3.5
X9.2Y-2.6
X9.25Y-2.8
X9.25Y-2.9
X9.25Y-3.0
X9.25Y-3.1
X9.25Y-3.2
X9.25Y-3.3
X9.25Y-3.4
X9.25Y-3.5
X9.35Y-2.1
X9.35Y-2.2
X9.35Y-2.3
X9.35Y-2.4
X9.45Y-2.05
X9.45Y-2.45
X9.45Y-3.8
X9.45Y-3.9
X9.45Y-4.0
X9.45Y-4.1
X9.45Y-4.2
X9.45Y-4.3
X9.45Y-4.4
X9.45Y-4.5
X9.45Y-4.6
X9.45Y-4.7
X9.45Y-4.8
X9.45Y-4.9
X9.55Y-2.05
X9.55Y-2.45
X9.55Y-2.8
X9.55Y-2.9
X9.55Y-3.0
X9.55Y-3.1
X9.55Y-3.2
X9.55Y-3.3
X9.55Y-3.4
X9.55Y-3.5
X9.55Y-4.5
X9.55Y-4.7
X9.5925Y-4.925
X9.5925Y-5.025
X9.5925Y-5.125
X9.5925Y-5.425
X9.5925Y-5.5825
X9.65Y-2.05
X9.65Y-2.45
X9.75Y-2.05
X9.75Y-2.45
X9.75Y-2.9
X9.75Y-3.0
X9.75Y-3.1
X9.75Y-3.2
X9.75Y-3.3
X9.75Y-3.4
X9.75Y-3.5
X9.75Y-3.6
X9.75Y-3.7
X9.75Y-3.8
X9.75Y-3.9
X9.75Y-4.0
X9.75Y-4.1
X9.75Y-4.2
X9.75Y-4.3
X9.75Y-4.4
X9.75Y-4.5
X9.75Y-4.6
X9.75Y-4.7
X9.75Y-4.8
X9.75Y-4.925
X9.7925Y-5.025
X9.7925Y-5.125
X9.85Y-2.05
X9.85Y-2.45
X9.9Y-2.6
X10.15Y-2.1
X10.15Y-2.4
X10.25Y-2.1
X10.25Y-2.4
X10.3Y-4.95
X10.3Y-5.05
X10.3Y-5.15
X10.3Y-5.25
X10.3Y-5.35
X10.35Y-2.1
X10.35Y-2.4
X10.35Y-2.9
X10.35Y-3.0
X10.35Y-3.1
X10.35Y-3.2
X10.35Y-3.3
X10.35Y-3.4
X10.35Y-3.5
X10.35Y-3.6
X10.35Y-3.7
X10.35Y-3.8
X10.35Y-3.9
X10.35Y-4.0
X10.35Y-4.1
X10.35Y-4.2
X10.35Y-4.3
X10.35Y-4.4
X10.35Y-4.5
X10.35Y-4.6
X10.35Y-4.7
X10.35Y-4.8
X10.4Y-4.95
X10.4Y-5.05
X10.4Y-5.15
X10.4Y-5.25
X10.4Y-5.35
X10.45Y-2.1
X10.45Y-2.4
X10.55Y-2.1
X10.55Y-2.4
X10.55Y-2.9
X10.55Y-3.0
X10.55Y-3.1
X10.55Y-3.2
X10.55Y-3.3
X10.55Y-3.4
X10.55Y-3.5
X10.55Y-3.6
X10.55Y-3.7
X10.55Y-3.8
X10.55Y-4.1
X10.55Y-4.2
X10.55Y-4.3
X10.55Y-4.4
X10.55Y-4.5
X10.55Y-4.6
X10.55Y-4.7
X10.55Y-4.8
X10.55Y-4.9
X10.55Y-5.0
X10.6493Y-5.35
X10.65Y-2.1
X10.65Y-2.4
X10.7493Y-5.35
X10.75Y-2.1
X10.75Y-2.4
X10.85Y-2.1
X10.85Y-2.4
X10.85Y-2.9
X10.85Y-3.0
X10.85Y-3.1
X10.85Y-3.2
X10.85Y-3.3
X10.85Y-3.4
X10.85Y-3.5
X10.85Y-3.6
X10.85Y-3.7
X10.85Y-3.8
X10.85Y-4.1
X10.85Y-4.2
X10.85Y-4.3
X10.85Y-4.4
X10.85Y-4.5
X10.85Y-4.6
X10.85Y-4.7
X10.85Y-4.8
X10.85Y-4.9
X10.85Y-5.0
X10.9Y-5.2
X10.925Y-1.375
X10.925Y-1.575
X10.95Y-1.7543
X11.05Y-2.9
X11.05Y-3.0
X11.05Y-3.1
X11.05Y-3.2
X11.05Y-3.3
X11.05Y-3.4
X11.05Y-3.5
X11.05Y-3.6
X11.05Y-3.7
X11.05Y-3.8
X11.05Y-4.3
X11.05Y-4.4
X11.05Y-4.5
X11.05Y-4.6
X11.05Y-4.7
X11.05Y-4.8
X11.05Y-4.9
X11.05Y-5.0
X11.1Y-5.2
X11.175Y-2.0
X11.175Y-2.6
X11.3Y-2.0
X11.3Y-2.2
X11.3Y-2.6
X11.35Y-2.9
X11.35Y-3.0
X11.35Y-3.1
X11.35Y-3.2
X11.35Y-3.3
X11.35Y-3.4
X11.35Y-3.5
X11.35Y-3.6
X11.35Y-3.7
X11.35Y-3.8
X11.35Y-4.3
X11.35Y-4.4
X11.35Y-4.5
X11.35Y-4.6
X11.35Y-4.7
X11.35Y-4.8
X11.35Y-4.9
X11.35Y-5.0
X11.4Y-2.2
X11.4Y-2.6
X11.5Y-2.2
X11.5Y-2.6
X11.55Y-2.9
X11.55Y-3.0
X11.55Y-3.1
X11.55Y-3.2
X11.55Y-3.3
X11.55Y-3.4
X11.55Y-3.5
X11.55Y-3.6
X11.55Y-3.7
X11.55Y-3.8
X11.55Y-3.9
X11.55Y-4.0
X11.55Y-4.1
X11.55Y-4.2
X11.55Y-4.3
X11.55Y-4.4
X11.55Y-4.5
X11.55Y-4.6
X11.55Y-4.7
X11.55Y-4.8
X11.6Y-2.2
X11.6Y-2.6
X11.65Y-1.7543
X11.7Y-2.2
X11.7Y-2.6
X11.8Y-2.2
X11.8Y-2.6
X12.0Y-2.0
X12.15Y-2.9
X12.15Y-3.0
X12.15Y-3.1
X12.15Y-3.2
X12.15Y-3.3
X12.15Y-3.4
X12.15Y-3.5
X12.15Y-3.6
X12.15Y-3.7
X12.15Y-3.8
X12.15Y-3.9
X12.15Y-4.0
X12.15Y-4.1
X12.15Y-4.2
X12.15Y-4.3
X12.15Y-4.4
X12.15Y-4.5
X12.15Y-4.6
X12.15Y-4.7
X12.15Y-4.8
X12.25Y-1.975
X12.25Y-2.375
X12.45Y-2.3
X12.45Y-2.4
X12.45Y-2.5
X12.45Y-2.6
X12.45Y-2.7
X12.45Y-2.8
X12.45Y-2.9
X12.45Y-3.0
X12.45Y-3.1
X12.45Y-3.6
X12.45Y-3.7
X12.45Y-3.8
X12.45Y-3.9
X12.45Y-4.0
X12.45Y-4.1
X12.45Y-4.2
X12.45Y-4.3
X12.45Y-4.4
X12.75Y-2.3
X12.75Y-2.4
X12.75Y-2.5
X12.75Y-2.6
X12.75Y-2.7
X12.75Y-2.8
X12.75Y-2.9
X12.75Y-3.0
X12.75Y-3.1
X12.75Y-3.6
X12.75Y-3.7
X12.75Y-3.8
X12.75Y-3.9
X12.75Y-4.0
X12.75Y-4.1
X12.75Y-4.2
X12.75Y-4.3
X12.75Y-4.4
X12.95Y-2.3
X12.95Y-2.4
X12.95Y-2.5
X12.95Y-2.6
X12.95Y-2.7
X12.95Y-2.8
X12.95Y-2.9
X12.95Y-3.0
X12.95Y-3.1
X12.95Y-3.6
X12.95Y-3.7
X12.95Y-3.8
X12.95Y-3.9
X12.95Y-4.0
X12.95Y-4.1
X12.95Y-4.2
X12.95Y-4.3
X12.95Y-4.4
X13.25Y-2.3
X13.25Y-2.4
X13.25Y-2.5
X13.25Y-2.6
X13.25Y-2.7
X13.25Y-2.8
X13.25Y-2.9
X13.25Y-3.0
X13.25Y-3.1
X13.25Y-3.3
X13.25Y-3.6
X13.25Y-3.7
X13.25Y-3.8
X13.25Y-3.9
X13.25Y-4.0
X13.25Y-4.1
X13.25Y-4.2
X13.25Y-4.3
X13.25Y-4.4
X13.25Y-4.6
X13.45Y-2.3
X13.45Y-2.4
X13.45Y-2.5
X13.45Y-2.6
X13.45Y-2.7
X13.45Y-2.8
X13.45Y-2.9
X13.45Y-3.0
X13.45Y-3.1
X13.45Y-3.3
X13.45Y-3.6
X13.45Y-3.7
X13.45Y-3.8
X13.45Y-3.9
X13.45Y-4.0
X13.45Y-4.1
X13.45Y-4.2
X13.45Y-4.3
X13.45Y-4.4
X13.45Y-4.6
X13.75Y-2.3
X13.75Y-2.4
X13.75Y-2.5
X13.75Y-2.6
X13.75Y-2.7
X13.75Y-2.8
X13.75Y-2.9
X13.75Y-3.0
X13.75Y-3.1
X13.75Y-3.6
X13.75Y-3.7
X13.75Y-3.8
X13.75Y-3.9
X13.75Y-4.0
X13.75Y-4.1
X13.75Y-4.2
X13.75Y-4.3
X13.75Y-4.4
X13.95Y-2.3
X13.95Y-2.4
X13.95Y-2.5
X13.95Y-2.6
X13.95Y-2.7
X13.95Y-2.8
X13.95Y-2.9
X13.95Y-3.0
X13.95Y-3.1
X13.95Y-3.6
X13.95Y-3.7
X13.95Y-3.8
X13.95Y-3.9
X13.95Y-4.0
X13.95Y-4.1
X13.95Y-4.2
X13.95Y-4.3
X13.95Y-4.4
X14.25Y-2.3
X14.25Y-2.4
X14.25Y-2.5
X14.25Y-2.6
X14.25Y-2.7
X14.25Y-2.8
X14.25Y-2.9
X14.25Y-3.0
X14.25Y-3.1
X14.25Y-3.3
X14.25Y-3.6
X14.25Y-3.7
X14.25Y-3.8
X14.25Y-3.9
X14.25Y-4.0
X14.25Y-4.1
X14.25Y-4.2
X14.25Y-4.3
X14.25Y-4.4
X14.45Y-2.3
X14.45Y-2.4
X14.45Y-2.5
X14.45Y-2.6
X14.45Y-2.7
X14.45Y-2.8
X14.45Y-2.9
X14.45Y-3.0
X14.45Y-3.1
X14.45Y-3.3
X14.45Y-3.6
X14.45Y-3.7
X14.45Y-3.8
X14.45Y-3.9
X14.45Y-4.0
X14.45Y-4.1
X14.45Y-4.2
X14.45Y-4.3
X14.45Y-4.4
X14.75Y-2.075
X14.75Y-2.3
X14.75Y-2.4
X14.75Y-2.5
X14.75Y-2.6
X14.75Y-2.7
X14.75Y-2.8
X14.75Y-2.9
X14.75Y-3.0
X14.75Y-3.1
X14.75Y-3.6
X14.75Y-3.7
X14.75Y-3.8
X14.75Y-3.9
X14.75Y-4.0
X14.75Y-4.1
X14.75Y-4.2
X14.75Y-4.3
X14.75Y-4.4
X14.75Y-4.6
X14.95Y-1.175
X14.95Y-1.875
X14.95Y-2.075
X14.95Y-2.3
X14.95Y-2.4
X14.95Y-2.5
X14.95Y-2.6
X14.95Y-2.7
X14.95Y-2.8
X14.95Y-2.9
X14.95Y-3.0
X14.95Y-3.1
X14.95Y-3.6
X14.95Y-3.7
X14.95Y-3.8
X14.95Y-3.9
X14.95Y-4.0
X14.95Y-4.1
X14.95Y-4.2
X14.95Y-4.3
X14.95Y-4.4
X14.95Y-4.6
X15.25Y-2.3
X15.25Y-2.4
X15.25Y-2.5
X15.25Y-2.6
X15.25Y-2.7
X15.25Y-2.8
X15.25Y-2.9
X15.25Y-3.0
X15.25Y-3.1
X15.25Y-3.6
X15.25Y-3.7
X15.25Y-3.8
X15.25Y-3.9
X15.25Y-4.0
X15.25Y-4.1
X15.25Y-4.2
X15.25Y-4.3
X15.25Y-4.4
T6
X1.4502Y-2.35
X1.5502Y-2.35
X2.2Y-1.15
X2.2Y-1.25
X2.2Y-1.4
X2.2Y-1.5
X2.3Y-1.15
X2.3Y-1.25
X2.3Y-1.4
X2.3Y-1.5
X2.4Y-1.15
X2.4Y-1.25
X2.4Y-1.4
X2.4Y-1.5
X2.5Y-1.15
X2.5Y-1.25
X2.5Y-1.4
X2.5Y-1.5
X2.6Y-1.15
X2.6Y-1.25
X2.6Y-1.4
X2.6Y-1.5
X2.7Y-1.15
X2.7Y-1.25
X2.7Y-1.4
X2.7Y-1.5
X2.8Y-1.15
X2.8Y-1.25
X2.8Y-1.4
X2.8Y-1.5
X2.9Y-1.15
X2.9Y-1.25
X2.9Y-1.4
X2.9Y-1.5
X3.0Y-1.15
X3.0Y-1.25
X3.0Y-1.4
X3.0Y-1.5
X3.1Y-1.15
X3.1Y-1.25
X3.1Y-1.4
X3.1Y-1.5
X3.2Y-1.15
X3.2Y-1.25
X3.2Y-1.4
X3.2Y-1.5
X3.3Y-1.15
X3.3Y-1.25
X3.3Y-1.4
X3.3Y-1.5
X3.4Y-1.15
X3.4Y-1.25
X3.4Y-1.4
X3.4Y-1.5
X3.5Y-1.15
X3.5Y-1.25
X3.5Y-1.4
X3.5Y-1.5
X3.525Y-5.25
X3.6Y-1.15
X3.6Y-1.25
X3.6Y-1.4
X3.6Y-1.5
X3.625Y-5.25
X3.7Y-1.15
X3.7Y-1.25
X3.7Y-1.4
X3.7Y-1.5
X3.8Y-1.15
X3.8Y-1.25
X3.8Y-1.4
X3.8Y-1.5
X3.85Y-5.15
X3.85Y-5.25
X3.9Y-1.15
X3.9Y-1.25
X3.9Y-1.4
X3.9Y-1.5
X3.95Y-5.15
X3.95Y-5.25
X4.0Y-1.15
X4.0Y-1.25
X4.0Y-1.4
X4.0Y-1.5
X4.05Y-5.15
X4.05Y-5.25
X4.1Y-1.15
X4.1Y-1.25
X4.1Y-1.4
X4.1Y-1.5
X4.15Y-5.15
X4.15Y-5.25
X4.2Y-1.15
X4.2Y-1.25
X4.2Y-1.4
X4.2Y-1.5
X4.25Y-5.15
X4.25Y-5.25
X4.3Y-1.15
X4.3Y-1.25
X4.3Y-1.4
X4.3Y-1.5
X4.35Y-5.15
X4.35Y-5.25
X4.4Y-1.15
X4.4Y-1.25
X4.4Y-1.4
X4.4Y-1.5
X4.45Y-5.15
X4.45Y-5.25
X4.5Y-1.15
X4.5Y-1.25
X4.5Y-1.4
X4.5Y-1.5
X4.55Y-5.15
X4.55Y-5.25
X4.6Y-1.15
X4.6Y-1.25
X4.6Y-1.4
X4.6Y-1.5
X4.65Y-5.15
X4.65Y-5.25
X4.7Y-1.15
X4.7Y-1.25
X4.7Y-1.4
X4.7Y-1.5
X4.75Y-5.15
X4.75Y-5.25
X4.8Y-1.15
X4.8Y-1.25
X4.8Y-1.4
X4.8Y-1.5
X4.9Y-1.15
X4.9Y-1.25
X4.9Y-1.4
X4.9Y-1.5
X5.0Y-1.15
X5.0Y-1.25
X5.0Y-1.4
X5.0Y-1.5
X5.1Y-1.15
X5.1Y-1.25
X5.1Y-1.4
X5.1Y-1.5
X5.2Y-1.15
X5.2Y-1.25
X5.2Y-1.4
X5.2Y-1.5
X5.3Y-1.15
X5.3Y-1.25
X5.3Y-1.4
X5.3Y-1.5
X6.1Y-1.1493
X6.1Y-1.2493
X6.2Y-1.1493
X6.2Y-1.2493
X6.3Y-1.1493
X6.3Y-1.2493
X6.4Y-1.1493
X6.4Y-1.2493
X6.5Y-1.1493
X6.5Y-1.2493
X6.6Y-1.1493
X6.6Y-1.2493
X6.7Y-1.1493
X6.7Y-1.2493
X6.8Y-1.1493
X6.8Y-1.2493
X6.9Y-1.1493
X6.9Y-1.2493
X7.0Y-1.1493
X7.0Y-1.2493
X7.1Y-1.1493
X7.1Y-1.2493
X7.2Y-1.1493
X7.2Y-1.2493
X7.3Y-1.1493
X7.3Y-1.2493
X8.825Y-1.7
X8.925Y-1.7
X9.45Y-1.6998
X9.45Y-1.7998
X10.15Y-1.7
X10.15Y-1.8
X10.6Y-1.05
X10.6Y-1.15
X10.7Y-1.05
X10.7Y-1.15
X10.8Y-1.05
X10.8Y-1.15
X10.9Y-1.05
X10.9Y-1.15
X11.0Y-1.05
X11.0Y-1.15
X11.35Y-5.15
X11.35Y-5.25
X12.3414Y-1.905
X12.5514Y-1.75
T7
X9.1Y-1.7559
X9.2Y-1.7559
X9.3Y-1.7559
X9.8Y-1.7559
X9.9Y-1.7559
X10.0Y-1.7559
T8
X11.8713Y-1.4437
X11.8713Y-1.6406
X11.9638Y-1.05
X11.9638Y-1.5421
X12.0622Y-1.05
X12.1606Y-1.4437
X12.2591Y-1.05
X12.3575Y-1.05
X12.3575Y-1.5421
X12.45Y-1.4437
X12.45Y-1.6406
T9
X3.0827Y-6.0984
X3.2643Y-7.595
X3.3976Y-6.0984
X3.4488Y-6.8465
X3.5792Y-7.595
X3.6265Y-8.343
X3.7638Y-6.8465
X3.8307Y-6.0984
X3.9414Y-8.343
X4.0123Y-7.595
X4.1457Y-6.0984
X4.1969Y-6.8465
X4.3273Y-7.595
X4.3745Y-8.343
X4.5118Y-6.8465
X4.5787Y-6.0984
X4.6895Y-8.343
X4.7603Y-7.595
X4.8937Y-6.0984
X4.9449Y-6.8465
X5.0753Y-7.595
X5.1225Y-8.343
X5.2598Y-6.8465
X5.3268Y-6.0984
X5.4375Y-8.343
X5.5084Y-7.595
X5.6417Y-6.0984
X5.6929Y-6.8465
X5.8233Y-7.595
X5.8706Y-8.343
X6.0079Y-6.8465
X6.0748Y-6.0984
X6.1855Y-8.343
X6.2564Y-7.595
X6.3898Y-6.0984
X6.4375Y-6.8465
X6.5714Y-7.595
X6.6186Y-8.343
X6.7525Y-6.8465
X6.8194Y-6.0984
X6.9336Y-8.343
X7.0044Y-7.595
X7.1344Y-6.0984
X7.189Y-6.8465
X7.3194Y-7.595
X7.3666Y-8.343
X7.5039Y-6.8465
X7.5709Y-6.0984
X7.6816Y-8.343
X7.7525Y-7.595
X7.8858Y-6.0984
X7.937Y-6.8465
X8.0674Y-7.595
X8.1147Y-8.343
X8.252Y-6.8465
X8.3189Y-6.0984
X8.4296Y-8.343
X8.5Y-9.0906
X8.5005Y-7.595
X8.6339Y-6.0984
X8.685Y-6.8465
X8.815Y-9.0906
X8.8155Y-7.595
X8.8627Y-8.343
X9.0Y-6.8465
X9.0669Y-6.0984
X9.1777Y-8.343
X9.2485Y-7.595
X9.3819Y-6.0984
X9.4331Y-6.8465
X9.5635Y-7.595
X9.6107Y-8.343
X9.748Y-6.8465
X9.815Y-6.0984
X9.9257Y-8.343
X9.9966Y-7.595
X10.1299Y-6.0984
X10.1811Y-6.8465
X10.3115Y-7.595
X10.3588Y-8.343
X10.4961Y-6.8465
X10.563Y-6.0984
X10.6737Y-8.343
X10.7446Y-7.595
X10.878Y-6.0984
X10.9291Y-6.8465
X11.0595Y-7.595
X11.1068Y-8.343
X11.2441Y-6.8465
X11.311Y-6.0984
X11.4218Y-8.343
X11.4926Y-7.595
X11.626Y-6.0984
X11.6772Y-6.8465
X11.8076Y-7.595
X11.8548Y-8.343
X11.9921Y-6.8465
X12.0591Y-6.0984
X12.1698Y-8.343
X12.2406Y-7.595
X12.374Y-6.0984
X12.4252Y-6.8465
X12.5556Y-7.595
X12.6029Y-8.343
X12.6764Y-1.55
X12.7402Y-6.8465
X12.8071Y-6.0984
X12.9178Y-8.343
X12.9887Y-7.595
X13.122Y-6.0984
X13.1732Y-6.8465
X13.3036Y-7.595
X13.3509Y-8.343
X13.4882Y-6.8465
X13.555Y-6.0987
X13.6658Y-8.343
X13.7367Y-7.595
X13.87Y-6.0987
X13.9213Y-6.8465
X14.0517Y-7.595
X14.2Y-1.55
X14.2362Y-6.8465
T10
X2.4642Y-6.5717
T6
G00X11.2781Y-1.3287
M15
G01X11.2781Y-1.4154
M16
G05
G00X11.5183Y-1.25
M15
G01X11.4317Y-1.25
M16
G05
G00X11.5183Y-1.4941
M15
G01X11.4317Y-1.4941
M16
G05
M30
